<svg width="256" height="22" viewBox="0 0 256 22" fill="none" xmlns="http://www.w3.org/2000/svg">
<path d="M0 0.641113H5.60364V21.5848H0V0.641113Z" fill="black"/>
<path d="M6.98853 0.639893H12.2135L20.5288 11.7095V0.639893H26.0748V21.5836H21.1959L12.5345 10.0918V21.5799H6.98853V0.639893Z" fill="black"/>
<path d="M33.4439 5.72452H27.4075V0.639893H45.1091V5.72452H39.0439V21.5799H33.4439V5.72452Z" fill="black"/>
<path d="M46.7003 0.639893H62.9595V5.54519H52.2462V8.7469H61.9498V13.3234H52.2462V16.6447H63.1037V21.5799H46.7003V0.639893Z" fill="black"/>
<path d="M64.406 0.639893H73.9654C77.0557 0.639893 79.1904 1.47675 80.5498 2.8852C81.7326 4.11059 82.3384 5.69837 82.3384 7.76061V7.82039C82.3384 11.052 80.6941 13.1777 78.1807 14.2836L83.0019 21.5836H76.5616L72.4905 15.24H70.006V21.5836H64.4024V0.639893H64.406ZM73.7346 10.6896C75.6133 10.6896 76.7383 9.73319 76.7383 8.20519V8.14541C76.7383 6.46797 75.5556 5.63112 73.7057 5.63112H70.0096V10.6896H73.7346Z" fill="black"/>
<path d="M83.8712 0.639893H89.4712V21.5836H83.8712V0.639893Z" fill="black"/>
<path d="M90.7761 11.1694V11.1097C90.7761 5.09477 95.453 0.21936 101.691 0.21936C107.93 0.21936 112.549 5.035 112.549 11.0499V11.1097C112.549 17.1245 107.872 21.9999 101.634 21.9999C95.3953 21.9999 90.7761 17.1843 90.7761 11.1694ZM106.801 11.1694V11.1097C106.801 8.05738 104.72 5.45716 101.63 5.45716C98.5397 5.45716 96.4915 8.03123 96.4915 11.0536V11.1134C96.4915 14.1358 98.601 16.7696 101.688 16.7696C104.753 16.7659 106.801 14.1918 106.801 11.1694Z" fill="black"/>
<path d="M113.708 0.639893H123.268C126.358 0.639893 128.496 1.47675 129.852 2.8852C131.039 4.11059 131.644 5.69837 131.644 7.76061V7.82039C131.644 11.052 130 13.1777 127.487 14.2836L132.308 21.5836H125.868L121.797 15.24H119.312V21.5836H113.712V0.639893H113.708ZM123.037 10.6896C124.916 10.6896 126.041 9.73319 126.041 8.20519V8.14541C126.041 6.46797 124.854 5.63112 123.008 5.63112H119.312V10.6896H123.037Z" fill="black"/>
<path d="M138.918 14.4806H133.419V7.88661H138.918V2.29016H145.542V7.88661H151.041V14.4843H145.542V20.1144H138.918V14.4806Z" fill="black"/>
<path d="M153.098 0.420654H160.922C168.113 0.420654 172.299 4.7282 172.299 10.773V10.8327C172.299 16.8775 168.055 21.3644 160.807 21.3644H153.098V0.420654ZM158.701 5.5389V16.2162H160.984C164.363 16.2162 166.584 14.2997 166.584 10.9224V10.8626C166.584 7.51149 164.359 5.5389 160.984 5.5389H158.701Z" fill="black"/>
<path d="M173.49 0.417969H189.75V5.32327H179.036V8.52498H188.74V13.1015H179.036V16.4228H189.894V21.358H173.49V0.417969Z" fill="black"/>
<path d="M189.95 18.2505L193.069 14.3913C195.092 16.0351 197.285 16.9056 199.625 16.9056C201.157 16.9056 201.965 16.3676 201.965 15.471V15.4112C201.965 14.5146 201.302 14.0663 198.529 13.3751C194.227 12.3589 190.906 11.0999 190.906 6.82225V6.76247C190.906 2.87335 193.881 0.0601807 198.731 0.0601807C202.167 0.0601807 204.854 1.01658 207.046 2.84346L204.244 6.9418C202.394 5.56697 200.375 4.87582 198.583 4.87582C197.227 4.87582 196.563 5.44368 196.563 6.22076V6.28054C196.563 7.23694 197.256 7.65536 200.086 8.31663C204.706 9.36269 207.594 10.9206 207.594 14.8396V14.8994C207.594 19.177 204.331 21.7212 199.423 21.7212C195.842 21.7212 192.464 20.5519 189.95 18.2505Z" fill="black"/>
<path d="M208.871 0.417969H214.471V21.3617H208.871V0.417969Z" fill="black"/>
<path d="M215.774 10.9501V10.8903C215.774 4.78575 220.393 0 226.632 0C230.184 0 232.697 1.10584 234.832 3.02238L231.539 7.15061C230.097 5.89533 228.68 5.17803 226.661 5.17803C223.743 5.17803 221.493 7.69232 221.493 10.894V10.9538C221.493 14.3647 223.776 16.7894 226.978 16.7894C228.366 16.7894 229.405 16.4905 230.212 15.9226V13.3747H226.257V9.12692H235.528V18.5191C233.389 20.3759 230.443 21.7806 226.747 21.7806C220.451 21.7806 215.774 17.2937 215.774 10.9501Z" fill="black"/>
<path d="M236.91 0.417969H242.139L250.454 11.4876V0.417969H256V21.3617H251.121L242.456 9.87366V21.3617H236.91V0.417969Z" fill="black"/>
</svg>
